<svg width="300" height="90" viewBox="0 0 300 90" fill="none" xmlns="http://www.w3.org/2000/svg">
<path d="M50.9791 88.7968V1.20321H41.5485V38.8637H9.3767V1.20321H0V88.7968H9.3767V48.3088H41.5485V88.7968H50.9791ZM94.0364 53.0616L109.449 88.7968H119.957L120.011 88.0748L103.359 50.6551C105.515 49.6124 107.491 48.3489 109.287 46.865C111.083 45.3811 112.628 43.6765 113.922 41.7513C115.215 39.8262 116.221 37.6805 116.939 35.3141C117.694 32.9478 118.071 30.3409 118.071 27.4933C118.071 23.0816 117.37 19.2513 115.969 16.0027C114.604 12.7139 112.718 9.98664 110.311 7.82086C107.868 5.65508 105.03 4.03075 101.797 2.94786C98.5631 1.86497 95.1142 1.28343 91.4498 1.20321H68.4391V88.7968H78.3547V53.0616H94.0364ZM78.3547 43.9172V10.3476H91.4498C93.8567 10.3877 96.0662 10.7687 98.0781 11.4906C100.126 12.2126 101.886 13.2754 103.359 14.6791C104.832 16.123 105.982 17.9077 106.808 20.0334C107.634 22.119 108.048 24.5656 108.048 27.3731C108.048 30.0201 107.616 32.3663 106.754 34.4117C105.892 36.4171 104.724 38.1216 103.251 39.5254C101.743 40.9291 100 42.0121 98.0243 42.7741C96.0483 43.496 93.9466 43.8769 91.7192 43.9172H78.3547ZM145.285 1.20321H132.944V88.7968H142.644V53.8435L141.836 18.5295L155.147 64.4319H160.859L175.355 17.266L174.546 53.8435V88.7968H184.246V1.20321H171.852L158.056 44.9999L145.285 1.20321ZM241.692 66.6577C241.692 69.0642 241.226 71.1497 240.291 72.9144C239.357 74.639 238.154 76.0628 236.681 77.1858C235.208 78.3489 233.519 79.2112 231.615 79.7727C229.748 80.2941 227.843 80.5548 225.903 80.5548C223.46 80.5548 221.197 80.1939 219.113 79.4719C217.064 78.71 215.252 77.587 213.67 76.1029C212.089 74.659 210.796 72.8944 209.791 70.8089C208.784 68.6831 208.119 66.2567 207.797 63.5294H197.611C197.72 67.2996 198.456 70.7287 199.821 73.8168C201.222 76.865 203.108 79.5322 205.479 81.8183C208.138 84.4653 211.264 86.4907 214.856 87.8944C218.485 89.2982 222.166 90 225.903 90C229.028 90 232.154 89.5188 235.279 88.5562C238.405 87.5536 241.208 86.0695 243.686 84.1044C246.166 82.1792 248.177 79.7527 249.722 76.8249C251.303 73.8971 252.093 70.468 252.093 66.5375C252.093 62.647 251.357 59.2179 249.884 56.25C248.446 53.282 246.542 50.7755 244.172 48.73C241.764 46.5241 239.107 44.7192 236.196 43.3156C233.285 41.8716 230.376 40.6484 227.465 39.6458C225.705 39.0442 223.819 38.3422 221.807 37.5401C219.831 36.7379 217.999 35.7353 216.311 34.5321C214.586 33.329 213.168 31.8649 212.054 30.1403C210.94 28.3757 210.365 26.23 210.329 23.7033C210.329 21.3771 210.743 19.3315 211.568 17.5668C212.431 15.8021 213.58 14.3182 215.018 13.115C216.418 11.9118 218.017 11.0094 219.813 10.4077C221.645 9.80615 223.514 9.50535 225.418 9.50535C227.789 9.50535 229.909 9.92648 231.777 10.7687C233.681 11.5709 235.316 12.7139 236.681 14.1979C238.046 15.6819 239.142 17.4666 239.967 19.5521C240.794 21.5975 241.351 23.8836 241.639 26.4104H251.878C251.806 22.3997 251.033 18.77 249.56 15.5214C248.087 12.2727 246.129 9.50535 243.686 7.21926C241.243 4.93316 238.441 3.16846 235.279 1.92513C232.118 0.64171 228.831 0 225.418 0C222.328 0 219.257 0.541451 216.204 1.62434C213.149 2.66711 210.419 4.21123 208.012 6.25669C205.604 8.30215 203.647 10.8088 202.137 13.7767C200.664 16.7446 199.929 20.1136 199.929 23.8836C199.929 27.6538 200.664 30.9425 202.137 33.75C203.647 36.5174 205.587 38.9238 207.959 40.9692C210.293 42.9746 212.879 44.6992 215.718 46.143C218.592 47.5468 221.413 48.7501 224.178 49.7527C226.082 50.4344 228.058 51.1965 230.107 52.0388C232.19 52.881 234.095 53.9239 235.819 55.1671C237.542 56.4506 238.945 58.0147 240.022 59.8597C241.136 61.7046 241.692 63.9706 241.692 66.6577ZM284.265 81.5776C284.265 83.9038 284.911 85.8891 286.204 87.5335C287.535 89.1377 289.492 89.9399 292.079 89.9399C294.629 89.9399 296.588 89.1377 297.953 87.5335C299.317 85.9292 300 83.9439 300 81.5776C300 79.1711 299.317 77.1457 297.953 75.5013C296.623 73.8168 294.666 72.9747 292.079 72.9747C289.456 72.9747 287.498 73.8168 286.204 75.5013C284.911 77.1858 284.265 79.2112 284.265 81.5776Z" fill="url(#paint0_radial_0_1)"/>
<defs>
<radialGradient id="paint0_radial_0_1" cx="0" cy="0" r="1" gradientUnits="userSpaceOnUse" gradientTransform="translate(408.271 246.504) rotate(-140.138) scale(707.404 725.616)">
<stop stop-color="#FF0000"/>
<stop offset="1" stop-color="#6500E6"/>
</radialGradient>
</defs>
</svg>
